<svg class="icon" viewBox="37.5 212.8 520.3 416.2" role="img" aria-labelledby="title desc">
	<title id="title">Twitter Icon</title>
	<desc id="desc">Link to Twitter page</desc>
	<path d="M543.4,220.5c-20.6,12.1-43.5,20.8-67.8,25.5c-19.4-20.4-47.2-33.2-77.9-33.2c-58.9,0-106.7,47.1-106.7,105.1
		c0,8.2,0.9,16.2,2.7,24c-88.7-4.4-167.4-46.2-220-109.8c-9.2,15.5-14.5,33.5-14.5,52.8c0,36.4,18.8,68.6,47.5,87.4
		c-17.5-0.5-34-5.3-48.4-13.2c0,0.4,0,0.9,0,1.3c0,50.9,36.8,93.4,85.6,103c-9,2.4-18.4,3.7-28.1,3.7c-6.8,0-13.6-0.6-20.1-1.8
		c13.6,41.7,53,72.1,99.7,73c-36.6,28.2-82.5,45-132.6,45c-8.7,0-17.1-0.5-25.4-1.5c47.3,29.8,103.4,47.2,163.6,47.2
		c196.4,0,303.7-160.1,303.7-299c0-4.6-0.1-9.1-0.3-13.6c20.8-14.9,38.9-33.3,53.2-54.4c-19.2,8.3-39.7,14-61.3,16.5
		C518.5,265.6,535.5,245.1,543.4,220.5"/>
</svg>
